<svg xmlns="http://www.w3.org/2000/svg" aria-hidden="true" style="position:absolute;width:0;height:0;overflow:hidden"><defs><symbol id="icon-age" viewBox="0 0 32 32"><path fill="#22c1c1" d="M28.75 14A2.75 2.75 0 0 0 26 11.25h-9.25V9.675a3.762 3.762 0 0 0 3-3.675c0-3.362-3.198-5.534-3.334-5.625a.743.743 0 0 0-.835.002l.003-.002C15.448.466 12.25 2.638 12.25 6a3.758 3.758 0 0 0 2.975 3.671l.025.004v1.575H6A2.75 2.75 0 0 0 3.25 14v2.916c0 1.066.352 2.1 1 2.947V25A2.75 2.75 0 0 0 7 27.75h18A2.75 2.75 0 0 0 27.75 25v-5.137a4.821 4.821 0 0 0 1-2.947V14zm-15-8c0-1.925 1.5-3.426 2.25-4.055.75.625 2.25 2.125 2.25 4.055a2.25 2.25 0 1 1-4.5 0zm-9 8c0-.69.56-1.25 1.25-1.25h20c.69 0 1.25.56 1.25 1.25v2.916c0 1.79-1.416 3.285-3.157 3.333L24 20.25A3.25 3.25 0 0 1 20.75 17a.75.75 0 0 0-1.5 0 3.25 3.25 0 1 1-6.5 0 .75.75 0 0 0-1.5 0 3.252 3.252 0 0 1-3.251 3.251l-.097-.001h.005c-1.74-.049-3.157-1.544-3.157-3.334V14zM25 26.25H7c-.69 0-1.25-.56-1.25-1.25v-3.836c.61.348 1.336.563 2.11.586h.007l.142.002a4.709 4.709 0 0 0 3.305-1.348l-.001.001c.26-.254.49-.537.687-.843.858 1.324 2.328 2.188 4 2.188s3.142-.864 3.989-2.17l.011-.019c.198.306.43.589.69.843a4.7 4.7 0 0 0 3.298 1.345H24.134a4.576 4.576 0 0 0 2.139-.598l-.023.012v3.836c0 .69-.56 1.25-1.25 1.25z" style="fill:var(--color1, #22c1c1)"/></symbol><symbol id="icon-eating" viewBox="0 0 32 32"><path fill="#f21e84" d="M32 16c0 8.837-7.163 16-16 16S0 24.837 0 16 7.163 0 16 0s16 7.163 16 16z" opacity=".15" style="fill:var(--color2, #f21e84)"/><path fill="#f21e84" d="M22 14.625h-.639a5.375 5.375 0 0 0-10.72-.018l-.001.018h-.639a.375.375 0 0 0-.375.375 6.399 6.399 0 0 0 3.464 5.675l.036.017V21c0 .483.392.875.875.875h4a.875.875 0 0 0 .875-.875v-.308c2.09-1.078 3.495-3.22 3.5-5.691V15a.375.375 0 0 0-.375-.375zm-3.11-3.232c.181.145.352.304.509.475a5.4 5.4 0 0 0-3.208 2.726l-.014.031h-2.094c.609-1.896 2.354-3.245 4.415-3.25h.001c.13 0 .261.007.39.018zm1.004 1.115c.392.601.65 1.323.714 2.1l.001.017H17.03a4.64 4.64 0 0 1 2.832-2.11l.032-.007zM16 10.375h.008c.6 0 1.173.115 1.699.323l-.031-.011a5.409 5.409 0 0 0-4.362 3.9l-.009.038h-1.913a4.635 4.635 0 0 1 4.609-4.25zm2.344 9.74a.376.376 0 0 0-.219.341V21a.125.125 0 0 1-.125.125h-4a.125.125 0 0 1-.125-.125v-.544a.375.375 0 0 0-.217-.34l-.002-.001c-1.838-.862-3.119-2.635-3.267-4.722l-.001-.018h11.225a5.654 5.654 0 0 1-3.234 4.725l-.035.015z" style="fill:var(--color2, #f21e84)"/></symbol><symbol id="icon-exercise" viewBox="0 0 32 32"><path fill="#f69134" d="M32 16c0 8.837-7.163 16-16 16S0 24.837 0 16 7.163 0 16 0s16 7.163 16 16z" opacity=".15" style="fill:var(--color3, #f69134)"/><path fill="#f69134" d="M23.5 15.625h-.625V13.5a.875.875 0 0 0-.875-.875h-1.125V12a.875.875 0 0 0-.875-.875h-1.5a.875.875 0 0 0-.875.875v3.625h-3.25V12a.875.875 0 0 0-.875-.875H12a.875.875 0 0 0-.875.875v.625H10a.875.875 0 0 0-.875.875v2.125H8.5a.375.375 0 0 0 0 .75h.625V18.5c0 .483.392.875.875.875h1.125V20c0 .483.392.875.875.875h1.5a.875.875 0 0 0 .875-.875v-3.625h3.25V20c0 .483.392.875.875.875H20a.875.875 0 0 0 .875-.875v-.625H22a.875.875 0 0 0 .875-.875v-2.125h.625a.375.375 0 0 0 0-.75zm-13.5 3a.125.125 0 0 1-.125-.125v-5c0-.069.056-.125.125-.125h1.125v5.25H10zM13.625 20a.125.125 0 0 1-.125.125H12a.125.125 0 0 1-.125-.125v-8c0-.069.056-.125.125-.125h1.5c.069 0 .125.056.125.125v8zm6.5 0a.125.125 0 0 1-.125.125h-1.5a.125.125 0 0 1-.125-.125v-8c0-.069.056-.125.125-.125H20c.069 0 .125.056.125.125v8zm2-1.5a.125.125 0 0 1-.125.125h-1.125v-5.25H22c.069 0 .125.056.125.125v5z" style="fill:var(--color3, #f69134)"/></symbol><symbol id="icon-gender" viewBox="0 0 32 32"><path fill="#f24e1e" d="M26 3.25h-5a.75.75 0 0 0 0 1.5h3.19l-3.75 3.742a7.75 7.75 0 1 0-6.222 13.218l.032.003v2.538H11a.75.75 0 0 0 0 1.5h3.25v3.25a.75.75 0 0 0 1.5 0v-3.25H19a.75.75 0 0 0 0-1.5h-3.25v-2.538c3.943-.397 6.995-3.699 6.995-7.713 0-1.623-.499-3.13-1.352-4.375l.017.026 3.84-3.84v3.19a.75.75 0 0 0 1.5 0v-5a.75.75 0 0 0-.75-.75zm-11 17A6.25 6.25 0 1 1 21.25 14 6.257 6.257 0 0 1 15 20.25z" style="fill:var(--color4, #f24e1e)"/></symbol><symbol id="icon-muscle" viewBox="0 0 32 32"><path fill="#9747ff" d="M10.44 28h9.154C25.368 28 28 23.732 28 19.77a6.852 6.852 0 0 0-.698-2.717l.018.04a6.87 6.87 0 0 0-1.67-2.181l-.008-.007a7.932 7.932 0 0 0-5.327-2.216h-.009c-1.4.08-2.684.512-3.785 1.207l.033-.019a8.046 8.046 0 0 0-2.709 2.813l-.021.039c1.905 4.246 1.366 3.179.829 2.11l-2.444-5.364h1.697c.503-.031.98-.232 1.355-.57s.628-.793.715-1.292a2.702 2.702 0 0 0 .963-2.179v.005c0-2.955-3.284-4.438-5.11-4.438-2.493-.059-3.216 1.763-3.863 3.393l-.028.073C7.534 9.509 4 18.748 4 21.554v.029c0 1.772.703 3.381 1.846 4.561l-.002-.002A6.233 6.233 0 0 0 10.29 28l.157-.002h-.008V28zM9.43 9.06c.7-1.763 1.089-2.444 2.33-2.444h.055c1.195 0 3.52.996 3.52 2.824.021.184-.007.37-.082.539a1.504 1.504 0 0 0-.361-.347l-.005-.003a.752.752 0 0 0-.409-.139h-.427c-.415-.527-1.691-1.462-2.684-1.286l1.04 1.33h1.485l.215.516c.266.637.174.955.088 1.093a.448.448 0 0 1-.332.21H8.826l.495.65c.217.284.506.506.789.675.002.121.03.24.084.35l.222.447v.002c.47.948 1.56 3.144 2.145 4.316-.02.029-.04.059-.058.089l-2.32 3.793a.811.811 0 0 0 .261 1.108l.003.002a.794.794 0 0 0 1.101-.262l.002-.003 2.084-3.41c.065.016.14.026.217.027h.001c.082-.003.162-.016.24-.038l2.152 3.569a.803.803 0 0 0 1.104.269l-.004.002a.807.807 0 0 0 .268-1.112l.002.003-2.376-3.94a1.38 1.38 0 0 0-.116-.166l.003.003a6.384 6.384 0 0 1 2.119-2.385l.023-.014a6.202 6.202 0 0 1 3.017-1.026l.02-.001a6.336 6.336 0 0 1 4.251 1.786l-.002-.002a5.306 5.306 0 0 1 1.842 3.668l.001.016c-.001 3.293-2.105 6.616-6.803 6.616h-9.154a4.675 4.675 0 0 1-3.454-1.372 4.902 4.902 0 0 1-1.381-3.417v-.03.002c0-2.13 2.764-9.758 3.826-12.509z" style="fill:var(--color5, #9747ff)"/></symbol><symbol id="icon-pregnancy" viewBox="0 0 32 32"><path fill="#ffc700" d="M11.5 17.25a1.25 1.25 0 0 1 0-2.5 1.25 1.25 0 0 1 0 2.5zm9-2.5a1.25 1.25 0 0 0 0 2.5 1.25 1.25 0 0 0 0-2.5zm-1.4 5.615c-.881.555-1.952.884-3.1.884s-2.219-.329-3.124-.899l.024.014a.75.75 0 0 0-.803 1.268l.003.002c1.107.7 2.455 1.116 3.9 1.116s2.793-.415 3.93-1.134l-.03.018a.75.75 0 0 0-.804-1.268l.004-.002zM28.75 16c0 7.042-5.708 12.75-12.75 12.75S3.25 23.042 3.25 16 8.958 3.25 16 3.25c7.038.009 12.741 5.712 12.75 12.749V16zm-1.5 0c-.007-6.082-4.833-11.034-10.865-11.243l-.019-.001C14.787 6.904 14.75 8.981 14.75 9a1.25 1.25 0 0 0 2.5 0 .75.75 0 0 1 1.5 0 2.75 2.75 0 1 1-5.5 0c0-.094.019-1.978 1.268-4.152C8.975 5.606 4.75 10.309 4.75 16c0 6.213 5.037 11.25 11.25 11.25S27.25 22.213 27.25 16z" style="fill:var(--color6, #ffc700)"/></symbol><symbol id="icon-race" viewBox="0 0 32 32"><path fill="#f21e84" d="M16 8.75a3.75 3.75 0 0 0 0-7.5 3.75 3.75 0 0 0 0 7.5zm0-6a2.25 2.25 0 1 1 0 4.5 2.25 2.25 0 1 1 0-4.5zm11.11 14.177-5.651-6.407a3.747 3.747 0 0 0-2.813-1.27h-5.293a3.743 3.743 0 0 0-2.809 1.265l-.003.004-5.651 6.408a2.251 2.251 0 0 0 3.168 3.198l2.638-2.116-2.266 8.606a2.25 2.25 0 0 0 4.088 1.882l.006-.014L16 22.5l3.476 5.989a2.25 2.25 0 1 0 4.088-1.882l.006.014-2.266-8.608 2.639 2.112a2.25 2.25 0 0 0 3.166-3.196l.001.001v-.003zm-1.079 2.103a.747.747 0 0 1-1.06 0 .505.505 0 0 0-.06-.054l-.001-.001-4.439-3.56a.75.75 0 0 0-1.194.78l-.001-.005 2.859 10.866c.015.05.03.091.048.131l-.002-.006a.75.75 0 0 1-1.358.638l-.002-.005a.706.706 0 0 0-.032-.062l.001.002-4.14-7.13a.75.75 0 0 0-1.296-.003l-.002.004-4.14 7.131a.503.503 0 0 0-.03.057l-.001.003a.75.75 0 1 1-1.358-.637l-.002.005a.808.808 0 0 0 .044-.118l.002-.007 2.859-10.867a.748.748 0 0 0-.313-.814l-.003-.002a.754.754 0 0 0-.409-.125H12a.748.748 0 0 0-.471.166l.001-.001-4.439 3.56a.532.532 0 0 0-.061.055.75.75 0 0 1-1.06-1.06l.031-.034 5.665-6.424a2.244 2.244 0 0 1 1.687-.761H18.647c.671 0 1.273.293 1.685.759l.002.002 5.699 6.458a.748.748 0 0 1 0 1.06z" style="fill:var(--color2, #f21e84)"/></symbol><symbol id="icon-sleep" viewBox="0 0 32 32"><path fill="#22c1c1" d="M32 16c0 8.837-7.163 16-16 16S0 24.837 0 16 7.163 0 16 0s16 7.163 16 16z" opacity=".15" style="fill:var(--color1, #22c1c1)"/><path fill="#22c1c1" d="M22.875 14a.375.375 0 0 1-.375.375h-1.125V15.5a.375.375 0 0 1-.75 0v-1.125H19.5a.375.375 0 0 1 0-.75h1.125V12.5a.375.375 0 0 1 .75 0v1.125H22.5c.207 0 .375.168.375.375zM17 11.375h.625V12a.375.375 0 0 0 .75 0v-.625H19a.375.375 0 0 0 0-.75h-.625V10a.375.375 0 0 0-.75 0v.625H17a.375.375 0 0 0 0 .75zm4.453 6.267a.374.374 0 0 1 .066.377l.001-.003c-.848 2.27-2.997 3.856-5.518 3.856a5.875 5.875 0 0 1-2.057-11.38l.041-.013a.374.374 0 0 1 .496.426v-.002a5.63 5.63 0 0 0 6.651 6.608l-.036.006a.374.374 0 0 1 .357.123zm-.898.71a6.383 6.383 0 0 1-6.906-6.931l-.002.024c-1.66.87-2.773 2.582-2.773 4.553a5.126 5.126 0 0 0 3.5 4.861l.036.01a5.006 5.006 0 0 0 1.591.253 5.124 5.124 0 0 0 4.539-2.743l.013-.028z" style="fill:var(--color1, #22c1c1)"/></symbol><symbol id="logo" viewBox="0 0 32 32"><path fill="#b3d3f1" d="M16 1.313a13.9 13.9 0 0 0-.817.018c-.664.042-1.275.12-1.873.235l.092-.015-.193.037c-.055.01-.11.016-.165.028-.031.005-.062.012-.092.018l-.092.018c-.422.09-.742.172-1.058.265l.104-.026c-.03.008-.062.018-.092.028-.015.004-.03.014-.046.018-.046.014-.093.023-.138.037-.086.029-.171.063-.257.091-.181.061-.363.116-.541.184-.022.006-.043.02-.065.027-.27.103-.537.221-.799.34-.267.12-.531.241-.79.377s-.512.28-.762.431c-.011.007-.025.011-.037.018a13.789 13.789 0 0 0-1.811 1.303l.022-.018a18.15 18.15 0 0 0-.395.34l-.073.064c-.138.125-.271.255-.404.385l-.055.055c-.183.181-.36.362-.532.551-.104.114-.203.231-.303.348s-.197.238-.294.358c-.194.242-.381.49-.56.744-.115.163-.223.327-.33.495-.011.017-.026.03-.038.046l-.064.101c-.008.012-.019.024-.027.037-.026.042-.049.086-.074.129a21.98 21.98 0 0 0-.285.496c-.022.04-.05.078-.073.119v.009c-.111.206-.22.413-.321.624-.101.21-.193.419-.284.633-.026.06-.049.123-.074.184-.055.134-.114.268-.165.404-.029.076-.055.153-.083.229l-.064.184h-.009c-.027.082-.047.166-.074.248-.007.024-.011.05-.018.073-.005.015-.014.03-.018.046-.032.107-.061.213-.091.321v.009c-.005.013-.015.024-.018.037-.011.039-.016.08-.028.12-.034.125-.07.25-.101.376l-.028.11c-.012.049-.017.099-.028.147-.044.195-.084.391-.119.588-.005.028-.014.055-.018.083-.003.012-.007.024-.009.037-.028.162-.05.322-.073.486 0 .01-.008.018-.009.028-.008.062-.02.121-.028.184h.009c-.02.139-.043.354-.061.57l-.004.054c-.003.021-.007.043-.009.065h-.009c-.01.127-.013.257-.018.386v.027c-.012.221-.018.48-.018.74v.013c0 .25.006.496.018.744v.009c.009.184.022.369.037.551l.018.174v.037l.018.165c.012.111.03.221.046.331.013.092.022.184.037.275l.009.055c.034.215.067.423.11.634.048.228.099.456.157.68.003.003.007.005.009.009v.009c.054.207.111.411.174.615.008.025.02.049.028.073.058.185.119.369.183.55.008.022.02.043.027.064.02.055.035.111.055.165.036.095.072.19.11.285s.08.19.12.285c.092.22.19.436.293.651.088.185.179.37.275.551l.046.082v.009c.084.154.168.299.257.45.032.053.069.103.101.156.079.128.156.258.239.386l.055.082c.075.113.152.22.229.331l.101.147c.053.075.11.146.165.22.08.108.156.217.239.322l.027.037c.045.056.092.11.138.165.023.029.05.055.074.082.065.079.125.162.193.239.074.085.154.165.229.247.072.079.138.162.212.239.007.008.02.011.027.018.081.085.165.165.248.247.056.058.107.119.165.175.037.036.072.074.11.11.074.07.153.134.23.202.065.057.128.117.192.174.005.003.006.006.009.009.054.047.11.09.165.137.082.07.164.143.248.211.135.11.275.216.413.322l.082.064c.018.012.037.023.055.037.165.122.326.243.496.358a15.136 15.136 0 0 0 .551.358l.046.027c.116.07.232.135.349.202.088.05.178.098.267.147.055.03.109.062.165.091.146.077.292.148.441.22.008.005.019.005.027.01.098.046.196.093.294.137.071.032.14.07.211.102.048.02.098.036.147.055.043.017.085.037.129.055.146.06.293.119.441.174l.101.037.027.009.018.009c.152.055.305.106.459.157.043.014.086.023.129.037l.12.037c.076.024.152.052.229.073a12.767 12.767 0 0 0 .982.248l.083.018.101.018c.22.044.438.085.661.119.2.03.403.051.605.073.022.003.043.008.065.009l.165.018.11.009c.14.012.281.02.422.027.04.003.08.008.12.009.223.011.487.018.752.018H16.025c.515 0 1.023-.027 1.524-.079l-.063.005h.018c.37-.04.668-.082.963-.132l-.091.013.128-.018c.055-.01.11-.017.165-.028.18-.033.364-.07.542-.11.037-.008.073-.019.11-.027.102-.023.203-.049.303-.073l.064-.018c.03-.008.061-.01.091-.018.058-.015.116-.029.174-.046l.156-.046c.087-.025.171-.056.257-.083.064-.02.13-.034.193-.055l.018-.009c.157-.052.314-.108.468-.165l.147-.055.165-.065c.195-.076.388-.163.578-.247.03-.013.062-.023.092-.037l.082-.037a14.473 14.473 0 0 0 2.304-1.325l-.046.031c.139-.097.277-.192.413-.294l.11-.082c.026-.02.047-.044.073-.064.145-.112.291-.223.431-.34.33-.276.626-.546.911-.827l-.002.002.046-.046.027-.027c.15-.15.297-.303.441-.459.015-.015.032-.03.046-.046.269-.298.536-.621.79-.955l.027-.037c.261-.338.531-.724.781-1.123l.036-.061c.017-.028.038-.055.055-.082.05-.081.099-.165.147-.248.067-.11.131-.218.193-.33.005-.01.013-.018.018-.028v-.009c.116-.214.225-.431.33-.652.098-.203.197-.415.285-.624v-.009l.037-.083c.081-.194.157-.39.23-.587.024-.067.041-.135.064-.202.045-.128.087-.256.128-.385.064-.201.128-.402.183-.606.055-.203.101-.41.147-.615.055-.241.105-.481.147-.726v-.009c.035-.199.066-.395.092-.597l.018-.146c.026-.224.047-.453.064-.68.025-.346.045-.694.046-1.046v-.037c0-.93-.092-1.836-.257-2.717l-.046-.239c-.016-.079-.038-.159-.055-.239a14.554 14.554 0 0 0-.891-2.747l.037.094c-.031-.072-.068-.14-.101-.211-.047-.101-.09-.203-.137-.303l-.027-.055v-.009a13.26 13.26 0 0 0-.332-.646l.039.077v-.009c-.099-.181-.207-.357-.313-.533l-.046-.073c-.005-.002.005-.008 0-.009a12.987 12.987 0 0 0-.327-.512l.033.053c-.283-.428-.549-.79-.83-1.139l.022.028a14.576 14.576 0 0 0-.866-.977l.004.004-.046-.046c-.15-.155-.302-.302-.459-.45a14.78 14.78 0 0 0-1.41-1.183l-.04-.029a13.89 13.89 0 0 0-.948-.644l-.062-.036c-.005-.002-.005-.007-.009-.009a12.299 12.299 0 0 0-.763-.429l-.081-.039c-.215-.112-.431-.22-.651-.321s-.445-.195-.67-.285l-.019-.009a13.566 13.566 0 0 0-2.003-.641l-.099-.02-.073-.018c-.088-.02-.177-.037-.267-.055a5.184 5.184 0 0 0-.307-.062l-.078-.012a12.287 12.287 0 0 0-.999-.15l-.066-.006c-.238-.025-.484-.051-.726-.065-.018 0-.037.002-.055 0h-.009a14.874 14.874 0 0 0-.73-.018h-.024.001l.001.002zm-.973 1.359c.397.05.793.103 1.193.156 1.38.183 2.689.349 3.92.459a13.326 13.326 0 0 1 3.584 1.808l-.041-.027a30.229 30.229 0 0 1-3.241.046c-1.527-.064-3.116-.241-4.7-.45-1.12-.147-2.177-.305-3.195-.431-.803-.1-1.607-.179-2.415-.239a13.016 13.016 0 0 1 4.849-1.319l.044-.003zM9.758 5.766c1.146.019 2.249.085 3.338.197l-.162-.014c1.084.104 2.178.248 3.287.395 1.569.207 3.05.4 4.425.505a41.262 41.262 0 0 0 5.26.06l-.101.004c.358.39.702.812 1.019 1.254l.027.04c-.426.085-1.021.176-1.622.246l-.122.012c-1.39.154-2.971.234-4.663.165-1.527-.065-3.116-.241-4.7-.45-1.12-.148-2.177-.305-3.195-.431a40.414 40.414 0 0 0-2.775-.268l-.135-.007a32.594 32.594 0 0 0-1.87-.064h-.013l-.269-.001c-.513 0-1.023.01-1.53.031l.073-.002c-.11.005-.206.013-.312.019a13.748 13.748 0 0 1 1.561-1.583l.018-.015a25.894 25.894 0 0 1 2.473-.092h-.013zm0 3.516c1.027.011 2.092.079 3.176.184s2.178.248 3.287.395c1.569.207 3.05.4 4.425.505a40.91 40.91 0 0 0 4.241.101c1.191-.033 2.3-.099 3.4-.198l-.205.015c.169.357.33.719.468 1.092-.961.254-2.131.47-3.325.604l-.117.011a31.12 31.12 0 0 1-4.663.156c-.255-.011-.513-.021-.771-.037a5.33 5.33 0 0 0-6.362-.744 66.224 66.224 0 0 0-.762-.101 40.414 40.414 0 0 0-2.775-.268l-.135-.007c-.65-.04-1.278-.06-1.882-.065l-.269-.001c-.513 0-1.023.01-1.53.031l.073-.002c-.935.037-1.753.107-2.478.175.207-.524.404-.947.622-1.357l-.035.072c.406-.1.96-.206 1.521-.289l.113-.014a26.155 26.155 0 0 1 3.998-.257h-.014zm0 3.516c.614.007 1.245.039 1.881.082a5.262 5.262 0 0 0-.799 1.679l-.009.037a34.389 34.389 0 0 0-3.353-.158c-.509 0-1.016.011-1.52.032l.072-.002a48.047 48.047 0 0 0-2.846.211l-.486.046c.034-.357.085-.707.147-1.056.81-.242 1.801-.457 2.814-.602l.115-.013a26.155 26.155 0 0 1 3.999-.257h-.014zm19.407.899c.057.327.096.656.128.992a24.05 24.05 0 0 1-4.069.807l-.117.011a30.282 30.282 0 0 1-3.783.184h.019a5.304 5.304 0 0 0-.426-1.815l.013.034c1.413.098 2.748.105 3.956.073a53.54 53.54 0 0 0 3.397-.202c.339-.03.6-.056.881-.082zM9.758 16.314c.295.004.598.023.899.037a5.3 5.3 0 0 0 .431 1.781 32.472 32.472 0 0 0-1.339-.105l-.112-.005a34.502 34.502 0 0 0-2.17-.066c-.506 0-1.009.011-1.51.031l.072-.002a49.42 49.42 0 0 0-3.053.219l.208-.017-.358.037a11.312 11.312 0 0 1-.124-.938l-.004-.053c.038-.012.07-.025.11-.037a19.996 19.996 0 0 1 2.85-.611l.115-.013a26.071 26.071 0 0 1 3.999-.258h-.014zm19.553.881c-.038.415-.087.773-.15 1.127l.012-.08c-.164.049-.331.1-.514.147-.965.248-2.163.479-3.553.634s-2.971.225-4.663.156c-.043-.003-.085-.007-.128-.009a5.264 5.264 0 0 0 .844-1.707l.009-.038c1.324.086 2.578.113 3.718.082a52.915 52.915 0 0 0 3.397-.211c.401-.036.705-.07 1.028-.101zM9.758 19.83a36.81 36.81 0 0 1 2.785.148l-.141-.01a5.307 5.307 0 0 0 3.595 1.395h.005c.93 0 1.799-.235 2.561-.651.718.086 1.415.16 2.084.211 1.52.118 2.95.127 4.241.092s2.44-.116 3.397-.202l.201-.018c-.17.442-.373.867-.587 1.285-.811.18-1.741.343-2.791.459a31.12 31.12 0 0 1-4.663.156c-1.527-.065-3.116-.241-4.7-.45-1.12-.148-2.177-.305-3.195-.431a40.747 40.747 0 0 0-2.782-.26l-.128-.006c-.65-.041-1.278-.07-1.882-.073h-.089c-.576 0-1.148.013-1.718.04l.081-.003a45.3 45.3 0 0 0-2.315.151l.176-.013c-.139-.276-.296-.64-.438-1.011l-.03-.091c.628-.169 1.424-.33 2.234-.445l.116-.014a26.155 26.155 0 0 1 3.999-.257H9.76zm0 3.516c1.027.012 2.092.079 3.176.184s2.178.257 3.287.404c1.569.207 3.05.39 4.425.495 1.52.119 2.951.136 4.241.102a42.226 42.226 0 0 0 1.583-.071l-.123.006a13.728 13.728 0 0 1-1.572 1.621l-.016.014c-1.305.128-2.76.174-4.314.11-1.527-.064-3.116-.232-4.7-.441-1.12-.148-2.177-.314-3.195-.44a40.362 40.362 0 0 0-2.775-.269l-.135-.007a32.7 32.7 0 0 0-1.879-.055h-.003c-.567-.004-1.11 0-1.625.018a13.35 13.35 0 0 1-1.019-1.263l-.028-.041c.223-.038.45-.076.689-.11a26.14 26.14 0 0 1 3.999-.257H9.76zM8.84 26.87c.299-.008.608-.003.918 0 1.027.012 2.092.079 3.176.184s2.178.239 3.287.386c1.569.207 3.05.4 4.425.505.408.032.803.052 1.194.073a13.07 13.07 0 0 1-5.415 1.34h-.02c-.221-.027-.44-.053-.661-.082-1.12-.148-2.176-.296-3.194-.422-.131-.017-.257-.031-.386-.046a13.3 13.3 0 0 1-3.941-1.946l.039.027c.191-.009.381-.013.579-.018z" style="fill:var(--color7, #b3d3f1)"/></symbol><symbol id="pattern-curved-line-left" viewBox="0 0 85.831 200.501"><path fill="none" stroke="#ACC1DE" d="M82.719.092c7.831 41.7 2.31 140.08-82.43 200"/></symbol><symbol id="pattern-curved-line-right" viewBox="0 0 94.664 122.518"><path fill="none" stroke="#ACC1DE" d="M94.498 122.046C65.99 112.032 7.28 73.613.498.046"/></symbol><symbol id="icon-elpise-selected" fill="none" viewBox="0 0 32 32"><circle cx="15.5" cy="15.5" r="15.5" fill="#345FF6" fill-opacity=".15"/><circle cx="15.5" cy="15.5" r="7.5" fill="#345FF6"/></symbol><symbol id="icon-elpise-unselected" fill="none" viewBox="0 0 32 32"><circle cx="15.5" cy="15.5" r="15" fill="#fff" stroke="#D8E2E7"/></symbol></defs></svg>